<svg xmlns="http://www.w3.org/2000/svg" xmlns:xlink="http://www.w3.org/1999/xlink" width="40" zoomAndPan="magnify" viewBox="49 4 124 213" height="40" preserveAspectRatio="xMidYMid meet" version="1.0"><script xmlns=""/><defs><clipPath id="2ad027e962"><path d="M 0 39 L 137 39 L 137 177 L 0 177 Z M 0 39 " clip-rule="nonzero"/></clipPath><clipPath id="dbd3228418"><path d="M -7.6875 51.246094 L 128.28125 27.667969 L 150.710938 156.984375 L 14.738281 180.566406 Z M -7.6875 51.246094 " clip-rule="nonzero"/></clipPath><clipPath id="ce702a9359"><path d="M -7.6875 51.246094 L 128.28125 27.667969 L 150.710938 156.984375 L 14.738281 180.566406 Z M -7.6875 51.246094 " clip-rule="nonzero"/></clipPath><clipPath id="12e3c507cf"><path d="M -7.6875 51.246094 L 128.28125 27.667969 L 150.710938 156.984375 L 14.738281 180.566406 Z M -7.6875 51.246094 " clip-rule="nonzero"/></clipPath><clipPath id="220b278426"><path d="M 144 29 L 219 29 L 219 101 L 144 101 Z M 144 29 " clip-rule="nonzero"/></clipPath><clipPath id="fa1eda511b"><path d="M 146.429688 27.707031 L 219.820312 31.683594 L 216.042969 101.332031 L 142.652344 97.355469 Z M 146.429688 27.707031 " clip-rule="nonzero"/></clipPath><clipPath id="86ea14802f"><path d="M 146.429688 27.707031 L 219.820312 31.683594 L 216.042969 101.332031 L 142.652344 97.355469 Z M 146.429688 27.707031 " clip-rule="nonzero"/></clipPath><clipPath id="8ebc2cf0ee"><path d="M 146.429688 27.707031 L 219.820312 31.683594 L 216.042969 101.332031 L 142.652344 97.355469 Z M 146.429688 27.707031 " clip-rule="nonzero"/></clipPath><clipPath id="b587c20e2e"><path d="M 140 131 L 186 131 L 186 176 L 140 176 Z M 140 131 " clip-rule="nonzero"/></clipPath><clipPath id="896fa80d53"><path d="M 154.65625 120.417969 L 193.679688 142.828125 L 172.390625 179.898438 L 133.367188 157.492188 Z M 154.65625 120.417969 " clip-rule="nonzero"/></clipPath><clipPath id="9ca8b2a047"><path d="M 154.65625 120.417969 L 193.679688 142.828125 L 172.390625 179.898438 L 133.367188 157.492188 Z M 154.65625 120.417969 " clip-rule="nonzero"/></clipPath><clipPath id="d2599e0108"><path d="M 154.65625 120.417969 L 193.679688 142.828125 L 172.390625 179.898438 L 133.367188 157.492188 Z M 154.65625 120.417969 " clip-rule="nonzero"/></clipPath></defs><g clip-path="url(#2ad027e962)"><g clip-path="url(#dbd3228418)"><g clip-path="url(#ce702a9359)"><g clip-path="url(#12e3c507cf)"><path fill="#f4c01e" d="M 60.296875 39.457031 L 84.632812 75.789062 C 85.566406 77.183594 86.855469 78.308594 88.359375 79.050781 C 89.867188 79.792969 91.542969 80.121094 93.21875 80.007812 L 136.84375 77.066406 L 109.816406 111.441406 C 108.777344 112.761719 108.105469 114.332031 107.867188 115.992188 C 107.628906 117.65625 107.832031 119.351562 108.460938 120.910156 L 124.742188 161.5 L 83.699219 146.410156 C 82.125 145.832031 80.421875 145.675781 78.769531 145.964844 C 77.113281 146.25 75.5625 146.96875 74.273438 148.042969 L 40.710938 176.070312 L 42.375 132.371094 C 42.441406 130.695312 42.0625 129.027344 41.277344 127.542969 C 40.492188 126.058594 39.332031 124.804688 37.910156 123.910156 L 0.886719 100.644531 L 42.953125 88.726562 C 44.570312 88.269531 46.035156 87.394531 47.207031 86.1875 C 48.375 84.984375 49.207031 83.492188 49.617188 81.863281 Z M 60.296875 39.457031 " fill-opacity="1" fill-rule="evenodd"/></g></g></g></g><g clip-path="url(#220b278426)"><g clip-path="url(#fa1eda511b)"><g clip-path="url(#86ea14802f)"><g clip-path="url(#8ebc2cf0ee)"><path fill="#f4c01e" d="M 183.125 29.695312 L 191.425781 51.410156 C 191.746094 52.246094 192.277344 52.980469 192.972656 53.542969 C 193.667969 54.105469 194.496094 54.476562 195.378906 54.617188 L 218.378906 58.289062 L 200.25 72.875 C 199.550781 73.433594 199.015625 74.167969 198.695312 75 C 198.371094 75.832031 198.277344 76.734375 198.414062 77.617188 L 202.027344 100.578125 L 182.523438 87.875 C 181.773438 87.386719 180.90625 87.105469 180.015625 87.058594 C 179.121094 87.007812 178.230469 87.195312 177.433594 87.597656 L 156.667969 98.117188 L 162.742188 75.683594 C 162.976562 74.820312 162.976562 73.914062 162.746094 73.050781 C 162.519531 72.1875 162.0625 71.402344 161.433594 70.769531 L 144.984375 54.3125 L 168.246094 53.148438 C 169.140625 53.101562 170.003906 52.824219 170.757812 52.339844 C 171.507812 51.855469 172.117188 51.179688 172.523438 50.386719 Z M 183.125 29.695312 " fill-opacity="1" fill-rule="evenodd"/></g></g></g></g><g clip-path="url(#b587c20e2e)"><g clip-path="url(#896fa80d53)"><g clip-path="url(#9ca8b2a047)"><g clip-path="url(#d2599e0108)"><path fill="#f4c01e" d="M 174.167969 131.621094 L 172.710938 145.792969 C 172.65625 146.339844 172.742188 146.886719 172.96875 147.386719 C 173.191406 147.886719 173.542969 148.320312 173.988281 148.640625 L 185.542969 156.984375 L 171.609375 159.972656 C 171.074219 160.085938 170.578125 160.339844 170.171875 160.707031 C 169.765625 161.074219 169.464844 161.539062 169.296875 162.0625 L 164.933594 175.621094 L 157.777344 163.292969 C 157.503906 162.820312 157.109375 162.429688 156.632812 162.15625 C 156.160156 161.882812 155.621094 161.738281 155.074219 161.742188 L 140.820312 161.773438 L 150.332031 151.171875 C 150.699219 150.765625 150.949219 150.269531 151.0625 149.734375 C 151.175781 149.195312 151.144531 148.640625 150.972656 148.121094 L 146.527344 134.582031 L 159.5625 140.355469 C 160.0625 140.578125 160.613281 140.664062 161.15625 140.605469 C 161.699219 140.546875 162.21875 140.347656 162.660156 140.023438 Z M 174.167969 131.621094 " fill-opacity="1" fill-rule="evenodd"/></g></g></g></g></svg>