<svg id="visual" viewBox="0 0 675 900" width="675" height="900" xmlns="http://www.w3.org/2000/svg" xmlns:xlink="http://www.w3.org/1999/xlink" version="1.1"><rect x="0" y="0" width="675" height="900" fill="#0098da"></rect><path d="M0 712L14 711C28 710 56 708 84.2 707.2C112.3 706.3 140.7 706.7 168.8 728C197 749.3 225 791.7 253.2 782.5C281.3 773.3 309.7 712.7 337.8 665.8C366 619 394 586 422 575.8C450 565.7 478 578.3 506.2 627.5C534.3 676.7 562.7 762.3 590.8 799.5C619 836.7 647 825.3 661 819.7L675 814L675 901L661 901C647 901 619 901 590.8 901C562.7 901 534.3 901 506.2 901C478 901 450 901 422 901C394 901 366 901 337.8 901C309.7 901 281.3 901 253.2 901C225 901 197 901 168.8 901C140.7 901 112.3 901 84.2 901C56 901 28 901 14 901L0 901Z" fill="#ffffff" stroke-linecap="round" stroke-linejoin="miter"></path></svg>